<svg viewBox="0 0 512 512" xmlns="http://www.w3.org/2000/svg" xmlns:xlink="http://www.w3.org/1999/xlink"><linearGradient id="a" gradientTransform="matrix(1 0 0 -1 0 -19594)" gradientUnits="userSpaceOnUse" x1="0" x2="512" y1="-19850" y2="-19850"><stop offset="0" stop-color="#31d8ff"/><stop offset="1" stop-color="#ff80ff"/></linearGradient><path d="m512 256c0 141.386719-114.613281 256-256 256s-256-114.613281-256-256 114.613281-256 256-256 256 114.613281 256 256zm0 0" fill="url(#a)"/><g fill="#fff"><path d="m162.355469 416.996094h-5.761719c-47.199219 0-85.59375-38.394532-85.59375-85.589844 0-47.199219 38.394531-85.59375 85.59375-85.59375h5.761719c8.285156 0 15 6.714844 15 15v141.183594c0 8.285156-6.714844 15-15 15zm-15-140.417969c-26.273438 4.414063-46.355469 27.320313-46.355469 54.828125 0 27.503906 20.082031 50.410156 46.355469 54.824219zm0 0"/><path d="m355.40625 416.996094h-5.761719c-8.285156 0-15-6.714844-15-15v-141.183594c0-8.285156 6.714844-15 15-15h5.761719c47.195312 0 85.59375 38.398438 85.59375 85.59375s-38.394531 85.589844-85.59375 85.589844zm9.238281-140.417969v109.652344c26.273438-4.414063 46.355469-27.320313 46.355469-54.824219 0-27.507812-20.082031-50.414062-46.355469-54.828125zm0 0"/><path d="m349.644531 225.390625c-8.285156 0-15-6.71875-15-15v-54.746094c0-43.367187-35.277343-78.648437-78.644531-78.648437s-78.644531 35.28125-78.644531 78.648437v54.746094c0 8.28125-6.714844 15-15 15-8.285157 0-15-6.71875-15-15v-54.746094c0-59.910156 48.738281-108.648437 108.644531-108.648437s108.644531 48.738281 108.644531 108.648437v54.746094c0 8.28125-6.714843 15-15 15zm0 0"/></g></svg>